<?xml version="1.0" standalone="no"?>
<!DOCTYPE svg PUBLIC "-//W3C//DTD SVG 20010904//EN"
 "http://www.w3.org/TR/2001/REC-SVG-20010904/DTD/svg10.dtd">
<svg version="1.0" xmlns="http://www.w3.org/2000/svg"
 width="1000.000000pt" height="666.000000pt" viewBox="0 0 1000.000000 666.000000"
 preserveAspectRatio="xMidYMid meet">
<metadata>
Created by potrace 1.16, written by Peter Selinger 2001-2019
</metadata>
<g transform="translate(0.000000,666.000000) scale(0.100000,-0.100000)"
fill="#000000" stroke="none">
<path d="M0 3330 l0 -3330 5000 0 5000 0 0 3330 0 3330 -5000 0 -5000 0 0
-3330z m5849 2484 c45 -32 54 -75 59 -269 2 -111 0 -190 -7 -207 -7 -19 -26
-34 -63 -50 -109 -46 -351 -169 -450 -229 -114 -69 -223 -149 -334 -246 -40
-34 -76 -63 -81 -63 -4 0 -54 39 -109 88 -135 116 -232 185 -399 282 -77 45
-142 83 -144 86 -9 9 10 15 125 34 464 78 857 244 1199 505 118 90 155 103
204 69z m-1668 -17 c19 -13 85 -61 146 -108 62 -47 169 -115 238 -153 69 -37
125 -72 125 -76 0 -20 -253 -88 -506 -136 -159 -30 -177 -10 -195 219 -14 177
-8 210 48 250 48 34 98 35 144 4z m-444 -533 c316 -96 652 -262 894 -444 112
-83 219 -179 219 -196 0 -6 -41 -66 -91 -135 -205 -280 -350 -662 -380 -1002
-5 -62 -13 -152 -17 -202 -13 -162 26 -607 69 -775 25 -98 69 -191 119 -250
22 -26 40 -52 40 -58 0 -16 -56 -25 -108 -17 -172 24 -369 146 -495 305 -110
138 -209 391 -238 609 -14 105 -6 317 17 416 60 269 106 517 115 622 31 367
-75 770 -282 1074 -33 47 -59 89 -59 94 0 12 69 -2 197 -41z m2723 40 c0 -3
-29 -49 -64 -102 -180 -271 -262 -523 -273 -837 -7 -223 8 -385 51 -558 53
-208 69 -362 64 -596 -7 -264 -36 -393 -132 -578 -88 -168 -231 -305 -415
-396 l-84 -42 -346 0 -346 0 -65 31 c-81 39 -133 81 -183 147 -48 64 -70 112
-90 202 -18 79 -52 331 -62 445 -7 99 11 444 29 546 65 363 201 661 419 920
250 297 565 510 1012 682 267 103 485 164 485 136z m-1044 -3676 c50 -50 41
-83 -82 -295 -59 -103 -124 -217 -144 -253 -90 -162 -123 -212 -153 -231 -46
-27 -74 -24 -111 14 -17 17 -112 173 -210 345 -187 329 -204 369 -172 416 15
24 22 26 119 29 56 2 243 3 414 3 l313 -1 26 -27z"/>
</g>
</svg>
